{
 "accessors": [
  {
   "bufferView": 2,
   "componentType": 5126,
   "count": 467,
   "max": [
    134.0760498046875,
    273.23187255859375,
    273.23187255859375
   ],
   "min": [
    -74.60568237304688,
    -273.23187255859375,
    -273.23187255859375
   ],
   "type": "VEC3"
  },
  {
   "bufferView": 2,
   "byteOffset": 5604,
   "componentType": 5126,
   "count": 467,
   "max": [
    1.0,
    0.9836885333061218,
    0.9836882948875427
   ],
   "min": [
    -0.9988794922828674,
    -0.983688235282898,
    -0.9836883544921875
   ],
   "type": "VEC3"
  },
  {
   "bufferView": 1,
   "componentType": 5126,
   "count": 467,
   "max": [
    0.9971073269844055,
    0.9980030655860901
   ],
   "min": [
    0.011036417447030544,
    0.005524259060621262
   ],
   "type": "VEC2"
  },
  {
   "bufferView": 0,
   "componentType": 5125,
   "count": 1617,
   "type": "SCALAR"
  },
  {
   "bufferView": 2,
   "byteOffset": 11208,
   "componentType": 5126,
   "count": 467,
   "max": [
    134.0760498046875,
    273.23187255859375,
    273.23187255859375
   ],
   "min": [
    -74.60568237304688,
    -273.23187255859375,
    -273.23187255859375
   ],
   "type": "VEC3"
  },
  {
   "bufferView": 2,
   "byteOffset": 16812,
   "componentType": 5126,
   "count": 467,
   "max": [
    1.0,
    0.9836885333061218,
    0.9836882948875427
   ],
   "min": [
    -0.9988794922828674,
    -0.983688235282898,
    -0.9836883544921875
   ],
   "type": "VEC3"
  },
  {
   "bufferView": 1,
   "byteOffset": 3736,
   "componentType": 5126,
   "count": 467,
   "max": [
    0.9971073269844055,
    0.9980030655860901
   ],
   "min": [
    0.011036417447030544,
    0.005524259060621262
   ],
   "type": "VEC2"
  },
  {
   "bufferView": 0,
   "byteOffset": 6468,
   "componentType": 5125,
   "count": 1617,
   "type": "SCALAR"
  },
  {
   "bufferView": 2,
   "byteOffset": 22416,
   "componentType": 5126,
   "count": 467,
   "max": [
    74.60568237304688,
    273.23187255859375,
    273.23187255859375
   ],
   "min": [
    -134.07606506347656,
    -273.23187255859375,
    -273.23187255859375
   ],
   "type": "VEC3"
  },
  {
   "bufferView": 2,
   "byteOffset": 28020,
   "componentType": 5126,
   "count": 467,
   "max": [
    0.9988794922828674,
    0.9836881160736084,
    0.9836882948875427
   ],
   "min": [
    -1.0,
    -0.9836885929107666,
    -0.9836883544921875
   ],
   "type": "VEC3"
  },
  {
   "bufferView": 1,
   "byteOffset": 7472,
   "componentType": 5126,
   "count": 467,
   "max": [
    0.9971073269844055,
    0.9980030655860901
   ],
   "min": [
    0.011036417447030544,
    0.005524259060621262
   ],
   "type": "VEC2"
  },
  {
   "bufferView": 0,
   "byteOffset": 12936,
   "componentType": 5125,
   "count": 1617,
   "type": "SCALAR"
  },
  {
   "bufferView": 2,
   "byteOffset": 33624,
   "componentType": 5126,
   "count": 467,
   "max": [
    74.60568237304688,
    273.23187255859375,
    273.23187255859375
   ],
   "min": [
    -134.07606506347656,
    -273.23187255859375,
    -273.23187255859375
   ],
   "type": "VEC3"
  },
  {
   "bufferView": 2,
   "byteOffset": 39228,
   "componentType": 5126,
   "count": 467,
   "max": [
    0.9988794922828674,
    0.9836881160736084,
    0.9836882948875427
   ],
   "min": [
    -1.0,
    -0.9836885929107666,
    -0.9836883544921875
   ],
   "type": "VEC3"
  },
  {
   "bufferView": 1,
   "byteOffset": 11208,
   "componentType": 5126,
   "count": 467,
   "max": [
    0.9971073269844055,
    0.9980030655860901
   ],
   "min": [
    0.011036417447030544,
    0.005524259060621262
   ],
   "type": "VEC2"
  },
  {
   "bufferView": 0,
   "byteOffset": 19404,
   "componentType": 5125,
   "count": 1617,
   "type": "SCALAR"
  },
  {
   "bufferView": 2,
   "byteOffset": 44832,
   "componentType": 5126,
   "count": 4768,
   "max": [
    904.3771362304688,
    1827.4423828125,
    1472.8458251953125
   ],
   "min": [
    -904.3767700195312,
    -1837.3558349609375,
    123.58567810058594
   ],
   "type": "VEC3"
  },
  {
   "bufferView": 2,
   "byteOffset": 102048,
   "componentType": 5126,
   "count": 4768,
   "max": [
    1.0,
    1.0,
    1.0
   ],
   "min": [
    -1.0,
    -1.0,
    -1.0
   ],
   "type": "VEC3"
  },
  {
   "bufferView": 1,
   "byteOffset": 14944,
   "componentType": 5126,
   "count": 4768,
   "max": [
    0.9986472129821777,
    0.9976351857185364
   ],
   "min": [
    0.0006466067861765623,
    0.0030732061713933945
   ],
   "type": "VEC2"
  },
  {
   "bufferView": 0,
   "byteOffset": 25872,
   "componentType": 5125,
   "count": 13893,
   "type": "SCALAR"
  },
  {
   "bufferView": 2,
   "byteOffset": 159264,
   "componentType": 5126,
   "count": 191,
   "max": [
    643.1158447265625,
    1668.279541015625,
    1371.740966796875
   ],
   "min": [
    -643.1158447265625,
    -1751.41162109375,
    539.9501953125
   ],
   "type": "VEC3"
  },
  {
   "bufferView": 2,
   "byteOffset": 161556,
   "componentType": 5126,
   "count": 191,
   "max": [
    0.9600329995155334,
    0.9263727068901062,
    0.9329091906547546
   ],
   "min": [
    -0.9600329995155334,
    -0.8912294507026672,
    0.12437356263399124
   ],
   "type": "VEC3"
  },
  {
   "bufferView": 1,
   "byteOffset": 53088,
   "componentType": 5126,
   "count": 191,
   "max": [
    0.2612755000591278,
    0.1335916370153427
   ],
   "min": [
    0.009243916720151901,
    0.003034675493836403
   ],
   "type": "VEC2"
  },
  {
   "bufferView": 0,
   "byteOffset": 81444,
   "componentType": 5125,
   "count": 672,
   "type": "SCALAR"
  },
  {
   "bufferView": 2,
   "byteOffset": 163848,
   "componentType": 5126,
   "count": 284,
   "max": [
    698.8814086914062,
    1693.124267578125,
    929.8095703125
   ],
   "min": [
    -698.8814086914062,
    -1563.0322265625,
    598.073974609375
   ],
   "type": "VEC3"
  },
  {
   "bufferView": 2,
   "byteOffset": 167256,
   "componentType": 5126,
   "count": 284,
   "max": [
    0.9990311861038208,
    0.9834540486335754,
    0.9681824445724487
   ],
   "min": [
    -0.9990311861038208,
    -1.0,
    -0.7683252692222595
   ],
   "type": "VEC3"
  },
  {
   "bufferView": 1,
   "byteOffset": 54616,
   "componentType": 5126,
   "count": 284,
   "max": [
    0.9888244271278381,
    0.8401082754135132
   ],
   "min": [
    0.39750808477401733,
    0.004074970725923777
   ],
   "type": "VEC2"
  },
  {
   "bufferView": 0,
   "byteOffset": 84132,
   "componentType": 5125,
   "count": 738,
   "type": "SCALAR"
  },
  {
   "bufferView": 2,
   "byteOffset": 170664,
   "componentType": 5126,
   "count": 4309,
   "max": [
    2358.63134765625,
    1389.4635009765625,
    1435.295166015625
   ],
   "min": [
    -2370.802978515625,
    -1426.53955078125,
    127.813720703125
   ],
   "type": "VEC3"
  },
  {
   "bufferView": 2,
   "byteOffset": 222372,
   "componentType": 5126,
   "count": 4309,
   "max": [
    0.9999582171440125,
    0.997905969619751,
    1.0
   ],
   "min": [
    -0.9981462359428406,
    -0.9997554421424866,
    -1.0
   ],
   "type": "VEC3"
  },
  {
   "bufferView": 1,
   "byteOffset": 56888,
   "componentType": 5126,
   "count": 4309,
   "max": [
    0.9958164691925049,
    0.9969142079353333
   ],
   "min": [
    -0.0004289385105948895,
    0.20542678236961365
   ],
   "type": "VEC2"
  },
  {
   "bufferView": 0,
   "byteOffset": 87084,
   "componentType": 5125,
   "count": 11142,
   "type": "SCALAR"
  },
  {
   "bufferView": 2,
   "byteOffset": 274080,
   "componentType": 5126,
   "count": 128,
   "max": [
    918.1619873046875,
    982.583984375,
    1396.5086669921875
   ],
   "min": [
    -1926.15869140625,
    -1263.736328125,
    912.9395751953125
   ],
   "type": "VEC3"
  },
  {
   "bufferView": 2,
   "byteOffset": 275616,
   "componentType": 5126,
   "count": 128,
   "max": [
    0.6100737452507019,
    0.9055283069610596,
    0.9245461821556091
   ],
   "min": [
    -0.5104426741600037,
    -0.9098432064056396,
    0.31822851300239563
   ],
   "type": "VEC3"
  },
  {
   "bufferView": 1,
   "byteOffset": 91360,
   "componentType": 5126,
   "count": 128,
   "max": [
    0.21517832577228546,
    0.10253026336431503
   ],
   "min": [
    0.004133821465075016,
    0.003745423164218664
   ],
   "type": "VEC2"
  },
  {
   "bufferView": 0,
   "byteOffset": 131652,
   "componentType": 5125,
   "count": 456,
   "type": "SCALAR"
  },
  {
   "bufferView": 2,
   "byteOffset": 277152,
   "componentType": 5126,
   "count": 234,
   "max": [
    2249.428466796875,
    1344.506591796875,
    823.1092529296875
   ],
   "min": [
    -2264.328369140625,
    -1300.369140625,
    596.0675048828125
   ],
   "type": "VEC3"
  },
  {
   "bufferView": 2,
   "byteOffset": 279960,
   "componentType": 5126,
   "count": 234,
   "max": [
    0.969443142414093,
    0.9995355606079102,
    0.6943479180335999
   ],
   "min": [
    -0.9989200830459595,
    -0.9701426029205322,
    -0.697721004486084
   ],
   "type": "VEC3"
  },
  {
   "bufferView": 1,
   "byteOffset": 92384,
   "componentType": 5126,
   "count": 234,
   "max": [
    0.9999622106552124,
    0.8512805700302124
   ],
   "min": [
    0.39857879281044006,
    0.302529513835907
   ],
   "type": "VEC2"
  },
  {
   "bufferView": 0,
   "byteOffset": 133476,
   "componentType": 5125,
   "count": 648,
   "type": "SCALAR"
  },
  {
   "bufferView": 2,
   "byteOffset": 282768,
   "componentType": 5126,
   "count": 445,
   "max": [
    156.85879516601562,
    337.957275390625,
    337.957275390625
   ],
   "min": [
    -156.85879516601562,
    -337.957275390625,
    -337.957275390625
   ],
   "type": "VEC3"
  },
  {
   "bufferView": 2,
   "byteOffset": 288108,
   "componentType": 5126,
   "count": 445,
   "max": [
    1.0,
    0.9918799996376038,
    0.9918798804283142
   ],
   "min": [
    -0.9999999403953552,
    -0.9918798804283142,
    -0.991879940032959
   ],
   "type": "VEC3"
  },
  {
   "bufferView": 1,
   "byteOffset": 94256,
   "componentType": 5126,
   "count": 445,
   "max": [
    0.9971073269844055,
    0.9980030655860901
   ],
   "min": [
    0.0025589042343199253,
    0.005230903625488281
   ],
   "type": "VEC2"
  },
  {
   "bufferView": 0,
   "byteOffset": 136068,
   "componentType": 5125,
   "count": 1455,
   "type": "SCALAR"
  },
  {
   "bufferView": 2,
   "byteOffset": 293448,
   "componentType": 5126,
   "count": 445,
   "max": [
    156.85879516601562,
    337.957275390625,
    337.957275390625
   ],
   "min": [
    -156.85879516601562,
    -337.957275390625,
    -337.957275390625
   ],
   "type": "VEC3"
  },
  {
   "bufferView": 2,
   "byteOffset": 298788,
   "componentType": 5126,
   "count": 445,
   "max": [
    1.0,
    0.9918799996376038,
    0.9918798804283142
   ],
   "min": [
    -1.0,
    -0.9918798804283142,
    -0.991879940032959
   ],
   "type": "VEC3"
  },
  {
   "bufferView": 1,
   "byteOffset": 97816,
   "componentType": 5126,
   "count": 445,
   "max": [
    0.9971073269844055,
    0.9980030655860901
   ],
   "min": [
    0.0025589042343199253,
    0.005230903625488281
   ],
   "type": "VEC2"
  },
  {
   "bufferView": 0,
   "byteOffset": 141888,
   "componentType": 5125,
   "count": 1455,
   "type": "SCALAR"
  },
  {
   "bufferView": 2,
   "byteOffset": 304128,
   "componentType": 5126,
   "count": 445,
   "max": [
    156.85879516601562,
    337.957275390625,
    337.957275390625
   ],
   "min": [
    -156.85879516601562,
    -337.957275390625,
    -337.957275390625
   ],
   "type": "VEC3"
  },
  {
   "bufferView": 2,
   "byteOffset": 309468,
   "componentType": 5126,
   "count": 445,
   "max": [
    1.0,
    0.9918799996376038,
    0.9918798804283142
   ],
   "min": [
    -1.0,
    -0.9918798804283142,
    -0.991879940032959
   ],
   "type": "VEC3"
  },
  {
   "bufferView": 1,
   "byteOffset": 101376,
   "componentType": 5126,
   "count": 445,
   "max": [
    0.9971073269844055,
    0.9980030655860901
   ],
   "min": [
    0.0025589042343199253,
    0.005230903625488281
   ],
   "type": "VEC2"
  },
  {
   "bufferView": 0,
   "byteOffset": 147708,
   "componentType": 5125,
   "count": 1455,
   "type": "SCALAR"
  },
  {
   "bufferView": 2,
   "byteOffset": 314808,
   "componentType": 5126,
   "count": 445,
   "max": [
    156.85879516601562,
    337.957275390625,
    337.957275390625
   ],
   "min": [
    -156.85879516601562,
    -337.957275390625,
    -337.957275390625
   ],
   "type": "VEC3"
  },
  {
   "bufferView": 2,
   "byteOffset": 320148,
   "componentType": 5126,
   "count": 445,
   "max": [
    1.0,
    0.9918799996376038,
    0.9918798804283142
   ],
   "min": [
    -0.9999999403953552,
    -0.9918798804283142,
    -0.991879940032959
   ],
   "type": "VEC3"
  },
  {
   "bufferView": 1,
   "byteOffset": 104936,
   "componentType": 5126,
   "count": 445,
   "max": [
    0.9971073269844055,
    0.9980030655860901
   ],
   "min": [
    0.0025589042343199253,
    0.005230903625488281
   ],
   "type": "VEC2"
  },
  {
   "bufferView": 0,
   "byteOffset": 153528,
   "componentType": 5125,
   "count": 1455,
   "type": "SCALAR"
  },
  {
   "bufferView": 2,
   "byteOffset": 325488,
   "componentType": 5126,
   "count": 4400,
   "max": [
    979.7551879882812,
    2206.162841796875,
    1525.99365234375
   ],
   "min": [
    -979.7555541992188,
    -2245.292724609375,
    155.03465270996094
   ],
   "type": "VEC3"
  },
  {
   "bufferView": 2,
   "byteOffset": 378288,
   "componentType": 5126,
   "count": 4400,
   "max": [
    1.0,
    1.0,
    1.0
   ],
   "min": [
    -1.0,
    -1.0,
    -1.0
   ],
   "type": "VEC3"
  },
  {
   "bufferView": 1,
   "byteOffset": 108496,
   "componentType": 5126,
   "count": 4400,
   "max": [
    0.9939442276954651,
    0.9996488690376282
   ],
   "min": [
    0.0004787237267009914,
    0.04878515750169754
   ],
   "type": "VEC2"
  },
  {
   "bufferView": 0,
   "byteOffset": 159348,
   "componentType": 5125,
   "count": 12234,
   "type": "SCALAR"
  },
  {
   "bufferView": 2,
   "byteOffset": 431088,
   "componentType": 5126,
   "count": 153,
   "max": [
    766.5810546875,
    2031.1817626953125,
    1438.97265625
   ],
   "min": [
    -766.5811767578125,
    -1190.5946044921875,
    1029.531982421875
   ],
   "type": "VEC3"
  },
  {
   "bufferView": 2,
   "byteOffset": 432924,
   "componentType": 5126,
   "count": 153,
   "max": [
    0.9150034785270691,
    0.9073044061660767,
    0.9381082653999329
   ],
   "min": [
    -0.91500324010849,
    -0.4325156807899475,
    0.40298694372177124
   ],
   "type": "VEC3"
  },
  {
   "bufferView": 1,
   "byteOffset": 143696,
   "componentType": 5126,
   "count": 153,
   "max": [
    0.9968190789222717,
    0.19989192485809326
   ],
   "min": [
    0.48762303590774536,
    0.0010086782276630402
   ],
   "type": "VEC2"
  },
  {
   "bufferView": 0,
   "byteOffset": 208284,
   "componentType": 5125,
   "count": 546,
   "type": "SCALAR"
  },
  {
   "bufferView": 2,
   "byteOffset": 434760,
   "componentType": 5126,
   "count": 376,
   "max": [
    792.781494140625,
    2080.848876953125,
    1013.6898193359375
   ],
   "min": [
    -792.781494140625,
    -2077.038818359375,
    691.6244506835938
   ],
   "type": "VEC3"
  },
  {
   "bufferView": 2,
   "byteOffset": 439272,
   "componentType": 5126,
   "count": 376,
   "max": [
    0.9615636467933655,
    0.9833706021308899,
    0.9946216344833374
   ],
   "min": [
    -0.9615626931190491,
    -0.9682843089103699,
    -0.7986845374107361
   ],
   "type": "VEC3"
  },
  {
   "bufferView": 1,
   "byteOffset": 144920,
   "componentType": 5126,
   "count": 376,
   "max": [
    0.9885498881340027,
    0.9664027094841003
   ],
   "min": [
    0.01010922808200121,
    0.3682094216346741
   ],
   "type": "VEC2"
  },
  {
   "bufferView": 0,
   "byteOffset": 210468,
   "componentType": 5125,
   "count": 840,
   "type": "SCALAR"
  },
  {
   "bufferView": 2,
   "byteOffset": 443784,
   "componentType": 5126,
   "count": 546,
   "max": [
    122.48695373535156,
    337.5174255371094,
    337.5174255371094
   ],
   "min": [
    -113.3515396118164,
    -337.5174255371094,
    -337.5174255371094
   ],
   "type": "VEC3"
  },
  {
   "bufferView": 2,
   "byteOffset": 450336,
   "componentType": 5126,
   "count": 546,
   "max": [
    1.0,
    0.9976868033409119,
    0.9848125576972961
   ],
   "min": [
    -0.9993389248847961,
    -0.9976866841316223,
    -1.0
   ],
   "type": "VEC3"
  },
  {
   "bufferView": 1,
   "byteOffset": 147928,
   "componentType": 5126,
   "count": 546,
   "max": [
    0.9971073269844055,
    0.9980030655860901
   ],
   "min": [
    0.0025589042343199253,
    0.005230903625488281
   ],
   "type": "VEC2"
  },
  {
   "bufferView": 0,
   "byteOffset": 213828,
   "componentType": 5125,
   "count": 1701,
   "type": "SCALAR"
  },
  {
   "bufferView": 2,
   "byteOffset": 456888,
   "componentType": 5126,
   "count": 546,
   "max": [
    122.48695373535156,
    337.5174255371094,
    337.5174255371094
   ],
   "min": [
    -113.3515396118164,
    -337.5174255371094,
    -337.5174255371094
   ],
   "type": "VEC3"
  },
  {
   "bufferView": 2,
   "byteOffset": 463440,
   "componentType": 5126,
   "count": 546,
   "max": [
    1.0,
    0.9976868033409119,
    0.9848125576972961
   ],
   "min": [
    -0.9993389248847961,
    -0.9976866841316223,
    -1.0
   ],
   "type": "VEC3"
  },
  {
   "bufferView": 1,
   "byteOffset": 152296,
   "componentType": 5126,
   "count": 546,
   "max": [
    0.9971073269844055,
    0.9980030655860901
   ],
   "min": [
    0.0025589042343199253,
    0.005230903625488281
   ],
   "type": "VEC2"
  },
  {
   "bufferView": 0,
   "byteOffset": 220632,
   "componentType": 5125,
   "count": 1701,
   "type": "SCALAR"
  },
  {
   "bufferView": 2,
   "byteOffset": 469992,
   "componentType": 5126,
   "count": 546,
   "max": [
    113.35157775878906,
    337.5174560546875,
    337.5174255371094
   ],
   "min": [
    -122.4869613647461,
    -337.5174560546875,
    -337.5174255371094
   ],
   "type": "VEC3"
  },
  {
   "bufferView": 2,
   "byteOffset": 476544,
   "componentType": 5126,
   "count": 546,
   "max": [
    0.9993389248847961,
    0.9976866841316223,
    0.9848125576972961
   ],
   "min": [
    -1.0,
    -0.9976868033409119,
    -1.0
   ],
   "type": "VEC3"
  },
  {
   "bufferView": 1,
   "byteOffset": 156664,
   "componentType": 5126,
   "count": 546,
   "max": [
    0.9971073269844055,
    0.9980030655860901
   ],
   "min": [
    0.0025589042343199253,
    0.005230903625488281
   ],
   "type": "VEC2"
  },
  {
   "bufferView": 0,
   "byteOffset": 227436,
   "componentType": 5125,
   "count": 1701,
   "type": "SCALAR"
  },
  {
   "bufferView": 2,
   "byteOffset": 483096,
   "componentType": 5126,
   "count": 546,
   "max": [
    113.35157775878906,
    337.5174560546875,
    337.5174255371094
   ],
   "min": [
    -122.4869613647461,
    -337.5174560546875,
    -337.5174255371094
   ],
   "type": "VEC3"
  },
  {
   "bufferView": 2,
   "byteOffset": 489648,
   "componentType": 5126,
   "count": 546,
   "max": [
    0.9993389248847961,
    0.9976866841316223,
    0.9848125576972961
   ],
   "min": [
    -1.0,
    -0.9976868033409119,
    -1.0
   ],
   "type": "VEC3"
  },
  {
   "bufferView": 1,
   "byteOffset": 161032,
   "componentType": 5126,
   "count": 546,
   "max": [
    0.9971073269844055,
    0.9980030655860901
   ],
   "min": [
    0.0025589042343199253,
    0.005230903625488281
   ],
   "type": "VEC2"
  },
  {
   "bufferView": 0,
   "byteOffset": 234240,
   "componentType": 5125,
   "count": 1701,
   "type": "SCALAR"
  },
  {
   "bufferView": 2,
   "byteOffset": 496200,
   "componentType": 5126,
   "count": 566,
   "max": [
    169.52027893066406,
    357.824462890625,
    357.824462890625
   ],
   "min": [
    -145.6311492919922,
    -357.824462890625,
    -357.824462890625
   ],
   "type": "VEC3"
  },
  {
   "bufferView": 2,
   "byteOffset": 502992,
   "componentType": 5126,
   "count": 566,
   "max": [
    1.0,
    1.0,
    0.9921932816505432
   ],
   "min": [
    -0.997200071811676,
    -1.0,
    -0.9921932220458984
   ],
   "type": "VEC3"
  },
  {
   "bufferView": 1,
   "byteOffset": 165400,
   "componentType": 5126,
   "count": 566,
   "max": [
    0.9971073269844055,
    0.9989955425262451
   ],
   "min": [
    0.006384082138538361,
    0.00919500645250082
   ],
   "type": "VEC2"
  },
  {
   "bufferView": 0,
   "byteOffset": 241044,
   "componentType": 5125,
   "count": 1842,
   "type": "SCALAR"
  },
  {
   "bufferView": 2,
   "byteOffset": 509784,
   "componentType": 5126,
   "count": 4832,
   "max": [
    1051.19287109375,
    2556.767578125,
    1978.4423828125
   ],
   "min": [
    -1051.192626953125,
    -2629.6826171875,
    181.3486328125
   ],
   "type": "VEC3"
  },
  {
   "bufferView": 2,
   "byteOffset": 567768,
   "componentType": 5126,
   "count": 4832,
   "max": [
    1.0,
    1.0,
    1.0
   ],
   "min": [
    -1.0,
    -1.0,
    -1.0
   ],
   "type": "VEC3"
  },
  {
   "bufferView": 1,
   "byteOffset": 169928,
   "componentType": 5126,
   "count": 4832,
   "max": [
    0.99540114402771,
    0.9984042644500732
   ],
   "min": [
    0.003077009692788124,
    0.008143603801727295
   ],
   "type": "VEC2"
  },
  {
   "bufferView": 0,
   "byteOffset": 248412,
   "componentType": 5125,
   "count": 13803,
   "type": "SCALAR"
  },
  {
   "bufferView": 2,
   "byteOffset": 625752,
   "componentType": 5126,
   "count": 200,
   "max": [
    858.2481079101562,
    2410.220703125,
    1825.88671875
   ],
   "min": [
    -859.9539794921875,
    -1762.288818359375,
    1223.5272216796875
   ],
   "type": "VEC3"
  },
  {
   "bufferView": 2,
   "byteOffset": 628152,
   "componentType": 5126,
   "count": 200,
   "max": [
    0.9899148344993591,
    0.9833406209945679,
    0.880470871925354
   ],
   "min": [
    -0.9899148344993591,
    -0.8119724988937378,
    -0.6992060542106628
   ],
   "type": "VEC3"
  },
  {
   "bufferView": 1,
   "byteOffset": 208584,
   "componentType": 5126,
   "count": 200,
   "max": [
    0.9357239007949829,
    0.9166480898857117
   ],
   "min": [
    0.18110132217407227,
    0.3975100815296173
   ],
   "type": "VEC2"
  },
  {
   "bufferView": 0,
   "byteOffset": 303624,
   "componentType": 5125,
   "count": 591,
   "type": "SCALAR"
  },
  {
   "bufferView": 2,
   "byteOffset": 630552,
   "componentType": 5126,
   "count": 206,
   "max": [
    902.5625,
    2393.14501953125,
    1171.766845703125
   ],
   "min": [
    -902.562744140625,
    -2515.271484375,
    316.0196228027344
   ],
   "type": "VEC3"
  },
  {
   "bufferView": 2,
   "byteOffset": 633024,
   "componentType": 5126,
   "count": 206,
   "max": [
    0.9950308203697205,
    0.9992650747299194,
    0.7542065978050232
   ],
   "min": [
    -0.9950308203697205,
    -0.9094568490982056,
    -0.877601683139801
   ],
   "type": "VEC3"
  },
  {
   "bufferView": 1,
   "byteOffset": 210184,
   "componentType": 5126,
   "count": 206,
   "max": [
    0.9872448444366455,
    0.9868185520172119
   ],
   "min": [
    0.008071266114711761,
    0.45820268988609314
   ],
   "type": "VEC2"
  },
  {
   "bufferView": 0,
   "byteOffset": 305988,
   "componentType": 5125,
   "count": 588,
   "type": "SCALAR"
  },
  {
   "bufferView": 2,
   "byteOffset": 635496,
   "componentType": 5126,
   "count": 566,
   "max": [
    169.52027893066406,
    357.824462890625,
    357.824462890625
   ],
   "min": [
    -145.6311492919922,
    -357.824462890625,
    -357.824462890625
   ],
   "type": "VEC3"
  },
  {
   "bufferView": 2,
   "byteOffset": 642288,
   "componentType": 5126,
   "count": 566,
   "max": [
    1.0,
    1.0,
    0.9921932816505432
   ],
   "min": [
    -0.997200071811676,
    -1.0,
    -0.9921932220458984
   ],
   "type": "VEC3"
  },
  {
   "bufferView": 1,
   "byteOffset": 211832,
   "componentType": 5126,
   "count": 566,
   "max": [
    0.9971073269844055,
    0.9989955425262451
   ],
   "min": [
    0.006384082138538361,
    0.00919500645250082
   ],
   "type": "VEC2"
  },
  {
   "bufferView": 0,
   "byteOffset": 308340,
   "componentType": 5125,
   "count": 1842,
   "type": "SCALAR"
  },
  {
   "bufferView": 2,
   "byteOffset": 649080,
   "componentType": 5126,
   "count": 566,
   "max": [
    145.6311492919922,
    357.824462890625,
    357.824462890625
   ],
   "min": [
    -169.52027893066406,
    -357.824462890625,
    -357.824462890625
   ],
   "type": "VEC3"
  },
  {
   "bufferView": 2,
   "byteOffset": 655872,
   "componentType": 5126,
   "count": 566,
   "max": [
    0.997200071811676,
    1.0,
    0.9921932816505432
   ],
   "min": [
    -1.0,
    -1.0,
    -0.9921932220458984
   ],
   "type": "VEC3"
  },
  {
   "bufferView": 1,
   "byteOffset": 216360,
   "componentType": 5126,
   "count": 566,
   "max": [
    0.9971073269844055,
    0.9989955425262451
   ],
   "min": [
    0.006384082138538361,
    0.00919500645250082
   ],
   "type": "VEC2"
  },
  {
   "bufferView": 0,
   "byteOffset": 315708,
   "componentType": 5125,
   "count": 1842,
   "type": "SCALAR"
  },
  {
   "bufferView": 2,
   "byteOffset": 662664,
   "componentType": 5126,
   "count": 566,
   "max": [
    145.6311492919922,
    357.824462890625,
    357.824462890625
   ],
   "min": [
    -169.52027893066406,
    -357.824462890625,
    -357.824462890625
   ],
   "type": "VEC3"
  },
  {
   "bufferView": 2,
   "byteOffset": 669456,
   "componentType": 5126,
   "count": 566,
   "max": [
    0.997200071811676,
    1.0,
    0.9921932816505432
   ],
   "min": [
    -1.0,
    -1.0,
    -0.9921932220458984
   ],
   "type": "VEC3"
  },
  {
   "bufferView": 1,
   "byteOffset": 220888,
   "componentType": 5126,
   "count": 566,
   "max": [
    0.9971073269844055,
    0.9989955425262451
   ],
   "min": [
    0.006384082138538361,
    0.00919500645250082
   ],
   "type": "VEC2"
  },
  {
   "bufferView": 0,
   "byteOffset": 323076,
   "componentType": 5125,
   "count": 1842,
   "type": "SCALAR"
  },
  {
   "bufferView": 2,
   "byteOffset": 676248,
   "componentType": 5126,
   "count": 506,
   "max": [
    169.61962890625,
    402.3985595703125,
    402.3985595703125
   ],
   "min": [
    -169.6196746826172,
    -402.3985595703125,
    -402.3985595703125
   ],
   "type": "VEC3"
  },
  {
   "bufferView": 2,
   "byteOffset": 682320,
   "componentType": 5126,
   "count": 506,
   "max": [
    1.0,
    0.9921934008598328,
    0.9921932220458984
   ],
   "min": [
    -0.9972001314163208,
    -0.9921931624412537,
    -0.9921932220458984
   ],
   "type": "VEC3"
  },
  {
   "bufferView": 1,
   "byteOffset": 225416,
   "componentType": 5126,
   "count": 506,
   "max": [
    0.9971073269844055,
    0.9995068907737732
   ],
   "min": [
    0.006384082138538361,
    0.00919500645250082
   ],
   "type": "VEC2"
  },
  {
   "bufferView": 0,
   "byteOffset": 330444,
   "componentType": 5125,
   "count": 1626,
   "type": "SCALAR"
  },
  {
   "bufferView": 2,
   "byteOffset": 688392,
   "componentType": 5126,
   "count": 4253,
   "max": [
    1102.7799072265625,
    2293.97412109375,
    1766.270263671875
   ],
   "min": [
    -1102.7796630859375,
    -2138.95556640625,
    215.598876953125
   ],
   "type": "VEC3"
  },
  {
   "bufferView": 2,
   "byteOffset": 739428,
   "componentType": 5126,
   "count": 4253,
   "max": [
    1.0,
    1.0,
    1.0
   ],
   "min": [
    -1.0,
    -1.0,
    -1.0
   ],
   "type": "VEC3"
  },
  {
   "bufferView": 1,
   "byteOffset": 229464,
   "componentType": 5126,
   "count": 4253,
   "max": [
    0.9952031373977661,
    0.9989190697669983
   ],
   "min": [
    0.00220312736928463,
    0.007427491247653961
   ],
   "type": "VEC2"
  },
  {
   "bufferView": 0,
   "byteOffset": 336948,
   "componentType": 5125,
   "count": 12420,
   "type": "SCALAR"
  },
  {
   "bufferView": 2,
   "byteOffset": 790464,
   "componentType": 5126,
   "count": 105,
   "max": [
    830.48388671875,
    1890.3853759765625,
    1675.638916015625
   ],
   "min": [
    -830.4837646484375,
    -473.60791015625,
    1237.5631103515625
   ],
   "type": "VEC3"
  },
  {
   "bufferView": 2,
   "byteOffset": 791724,
   "componentType": 5126,
   "count": 105,
   "max": [
    0.9984238743782043,
    0.9606682658195496,
    0.5188220739364624
   ],
   "min": [
    -0.9984238743782043,
    -0.858817458152771,
    0.0553787536919117
   ],
   "type": "VEC3"
  },
  {
   "bufferView": 1,
   "byteOffset": 263488,
   "componentType": 5126,
   "count": 105,
   "max": [
    0.9923278093338013,
    0.10194731503725052
   ],
   "min": [
    0.7377777099609375,
    0.007080161944031715
   ],
   "type": "VEC2"
  },
  {
   "bufferView": 0,
   "byteOffset": 386628,
   "componentType": 5125,
   "count": 324,
   "type": "SCALAR"
  },
  {
   "bufferView": 2,
   "byteOffset": 792984,
   "componentType": 5126,
   "count": 102,
   "max": [
    746.5687255859375,
    1918.6392822265625,
    1089.32177734375
   ],
   "min": [
    -746.568603515625,
    -1860.849853515625,
    705.2366943359375
   ],
   "type": "VEC3"
  },
  {
   "bufferView": 2,
   "byteOffset": 794208,
   "componentType": 5126,
   "count": 102,
   "max": [
    0.19780585169792175,
    1.0,
    0.2531595826148987
   ],
   "min": [
    -0.19780585169792175,
    -0.9999998211860657,
    -0.19831588864326477
   ],
   "type": "VEC3"
  },
  {
   "bufferView": 1,
   "byteOffset": 264328,
   "componentType": 5126,
   "count": 102,
   "max": [
    0.9917767643928528,
    0.8474565744400024
   ],
   "min": [
    0.35782498121261597,
    0.011956444941461086
   ],
   "type": "VEC2"
  },
  {
   "bufferView": 0,
   "byteOffset": 387924,
   "componentType": 5125,
   "count": 258,
   "type": "SCALAR"
  },
  {
   "bufferView": 2,
   "byteOffset": 795432,
   "componentType": 5126,
   "count": 506,
   "max": [
    169.61962890625,
    402.3985595703125,
    402.3985595703125
   ],
   "min": [
    -169.6196746826172,
    -402.3985595703125,
    -402.3985595703125
   ],
   "type": "VEC3"
  },
  {
   "bufferView": 2,
   "byteOffset": 801504,
   "componentType": 5126,
   "count": 506,
   "max": [
    1.0,
    0.9921934008598328,
    0.9921932220458984
   ],
   "min": [
    -0.9972001314163208,
    -0.9921931624412537,
    -0.9921932220458984
   ],
   "type": "VEC3"
  },
  {
   "bufferView": 1,
   "byteOffset": 265144,
   "componentType": 5126,
   "count": 506,
   "max": [
    0.9971073269844055,
    0.9995068907737732
   ],
   "min": [
    0.006384082138538361,
    0.00919500645250082
   ],
   "type": "VEC2"
  },
  {
   "bufferView": 0,
   "byteOffset": 388956,
   "componentType": 5125,
   "count": 1626,
   "type": "SCALAR"
  },
  {
   "bufferView": 2,
   "byteOffset": 807576,
   "componentType": 5126,
   "count": 506,
   "max": [
    169.6196746826172,
    402.3985595703125,
    402.3985595703125
   ],
   "min": [
    -169.61962890625,
    -402.3985595703125,
    -402.3985595703125
   ],
   "type": "VEC3"
  },
  {
   "bufferView": 2,
   "byteOffset": 813648,
   "componentType": 5126,
   "count": 506,
   "max": [
    0.9972001314163208,
    0.9921934008598328,
    0.9921932816505432
   ],
   "min": [
    -1.0,
    -0.9921931624412537,
    -0.9921932220458984
   ],
   "type": "VEC3"
  },
  {
   "bufferView": 1,
   "byteOffset": 269192,
   "componentType": 5126,
   "count": 506,
   "max": [
    0.9971073269844055,
    0.9995068907737732
   ],
   "min": [
    0.006384082138538361,
    0.00919500645250082
   ],
   "type": "VEC2"
  },
  {
   "bufferView": 0,
   "byteOffset": 395460,
   "componentType": 5125,
   "count": 1626,
   "type": "SCALAR"
  },
  {
   "bufferView": 2,
   "byteOffset": 819720,
   "componentType": 5126,
   "count": 506,
   "max": [
    169.6196746826172,
    402.3985595703125,
    402.3985595703125
   ],
   "min": [
    -169.61962890625,
    -402.3985595703125,
    -402.3985595703125
   ],
   "type": "VEC3"
  },
  {
   "bufferView": 2,
   "byteOffset": 825792,
   "componentType": 5126,
   "count": 506,
   "max": [
    0.9972001314163208,
    0.9921934008598328,
    0.9921932816505432
   ],
   "min": [
    -1.0,
    -0.9921931624412537,
    -0.9921932220458984
   ],
   "type": "VEC3"
  },
  {
   "bufferView": 1,
   "byteOffset": 273240,
   "componentType": 5126,
   "count": 506,
   "max": [
    0.9971073269844055,
    0.9995068907737732
   ],
   "min": [
    0.006384082138538361,
    0.00919500645250082
   ],
   "type": "VEC2"
  },
  {
   "bufferView": 0,
   "byteOffset": 401964,
   "componentType": 5125,
   "count": 1626,
   "type": "SCALAR"
  },
  {
   "bufferView": 2,
   "byteOffset": 831864,
   "componentType": 5126,
   "count": 590,
   "max": [
    178.2914581298828,
    422.9712219238281,
    422.9712219238281
   ],
   "min": [
    -178.29150390625,
    -422.9712219238281,
    -422.9712219238281
   ],
   "type": "VEC3"
  },
  {
   "bufferView": 2,
   "byteOffset": 838944,
   "componentType": 5126,
   "count": 590,
   "max": [
    1.0,
    0.9921934008598328,
    0.9921932220458984
   ],
   "min": [
    -0.9972001314163208,
    -0.9921931624412537,
    -0.9921932816505432
   ],
   "type": "VEC3"
  },
  {
   "bufferView": 1,
   "byteOffset": 277288,
   "componentType": 5126,
   "count": 590,
   "max": [
    0.9971073269844055,
    0.9989955425262451
   ],
   "min": [
    0.006384082138538361,
    0.00919500645250082
   ],
   "type": "VEC2"
  },
  {
   "bufferView": 0,
   "byteOffset": 408468,
   "componentType": 5125,
   "count": 1752,
   "type": "SCALAR"
  },
  {
   "bufferView": 2,
   "byteOffset": 846024,
   "componentType": 5126,
   "count": 4892,
   "max": [
    1163.309326171875,
    2914.48291015625,
    1910.246826171875
   ],
   "min": [
    -1163.309326171875,
    -2914.48291015625,
    208.12245178222656
   ],
   "type": "VEC3"
  },
  {
   "bufferView": 2,
   "byteOffset": 904728,
   "componentType": 5126,
   "count": 4892,
   "max": [
    1.0,
    1.0,
    1.0
   ],
   "min": [
    -1.0,
    -1.0,
    -1.0
   ],
   "type": "VEC3"
  },
  {
   "bufferView": 1,
   "byteOffset": 282008,
   "componentType": 5126,
   "count": 4892,
   "max": [
    0.9979894757270813,
    0.9992677569389343
   ],
   "min": [
    0.0013117205817252398,
    0.06986738741397858
   ],
   "type": "VEC2"
  },
  {
   "bufferView": 0,
   "byteOffset": 415476,
   "componentType": 5125,
   "count": 12972,
   "type": "SCALAR"
  },
  {
   "bufferView": 2,
   "byteOffset": 963432,
   "componentType": 5126,
   "count": 136,
   "max": [
    891.6847534179688,
    734.156494140625,
    1810.14697265625
   ],
   "min": [
    -891.6849975585938,
    -1531.593505859375,
    1277.310791015625
   ],
   "type": "VEC3"
  },
  {
   "bufferView": 2,
   "byteOffset": 965064,
   "componentType": 5126,
   "count": 136,
   "max": [
    0.9839110374450684,
    0.9982292056083679,
    0.9036628007888794
   ],
   "min": [
    -0.9839110374450684,
    -0.5626327395439148,
    0.0594731904566288
   ],
   "type": "VEC3"
  },
  {
   "bufferView": 1,
   "byteOffset": 321144,
   "componentType": 5126,
   "count": 136,
   "max": [
    0.9941851496696472,
    0.13401435315608978
   ],
   "min": [
    0.6017169952392578,
    0.005344093777239323
   ],
   "type": "VEC2"
  },
  {
   "bufferView": 0,
   "byteOffset": 467364,
   "componentType": 5125,
   "count": 474,
   "type": "SCALAR"
  },
  {
   "bufferView": 2,
   "byteOffset": 966696,
   "componentType": 5126,
   "count": 130,
   "max": [
    877.1285400390625,
    2765.1259765625,
    1243.699462890625
   ],
   "min": [
    -877.1287841796875,
    -2757.74072265625,
    484.8861999511719
   ],
   "type": "VEC3"
  },
  {
   "bufferView": 2,
   "byteOffset": 968256,
   "componentType": 5126,
   "count": 130,
   "max": [
    0.9925879240036011,
    0.9975308775901794,
    0.5412737131118774
   ],
   "min": [
    -0.9925878047943115,
    -0.9999996423721313,
    -0.4016410708427429
   ],
   "type": "VEC3"
  },
  {
   "bufferView": 1,
   "byteOffset": 322232,
   "componentType": 5126,
   "count": 130,
   "max": [
    0.9982916116714478,
    0.8424686789512634
   ],
   "min": [
    0.024080045521259308,
    0.006085619330406189
   ],
   "type": "VEC2"
  },
  {
   "bufferView": 0,
   "byteOffset": 469260,
   "componentType": 5125,
   "count": 300,
   "type": "SCALAR"
  },
  {
   "bufferView": 2,
   "byteOffset": 969816,
   "componentType": 5126,
   "count": 590,
   "max": [
    178.2914581298828,
    422.9712219238281,
    422.9712219238281
   ],
   "min": [
    -178.29150390625,
    -422.9712219238281,
    -422.9712219238281
   ],
   "type": "VEC3"
  },
  {
   "bufferView": 2,
   "byteOffset": 976896,
   "componentType": 5126,
   "count": 590,
   "max": [
    1.0,
    0.9921934008598328,
    0.9921932220458984
   ],
   "min": [
    -0.9972001314163208,
    -0.9921931624412537,
    -0.9921932816505432
   ],
   "type": "VEC3"
  },
  {
   "bufferView": 1,
   "byteOffset": 323272,
   "componentType": 5126,
   "count": 590,
   "max": [
    0.9971073269844055,
    0.9989955425262451
   ],
   "min": [
    0.006384082138538361,
    0.00919500645250082
   ],
   "type": "VEC2"
  },
  {
   "bufferView": 0,
   "byteOffset": 470460,
   "componentType": 5125,
   "count": 1752,
   "type": "SCALAR"
  },
  {
   "bufferView": 2,
   "byteOffset": 983976,
   "componentType": 5126,
   "count": 590,
   "max": [
    178.29150390625,
    422.9712219238281,
    422.9712219238281
   ],
   "min": [
    -178.2914581298828,
    -422.9712219238281,
    -422.9712219238281
   ],
   "type": "VEC3"
  },
  {
   "bufferView": 2,
   "byteOffset": 991056,
   "componentType": 5126,
   "count": 590,
   "max": [
    0.997200071811676,
    0.9921934008598328,
    0.9921932220458984
   ],
   "min": [
    -1.0,
    -0.9921931624412537,
    -0.9921932816505432
   ],
   "type": "VEC3"
  },
  {
   "bufferView": 1,
   "byteOffset": 327992,
   "componentType": 5126,
   "count": 590,
   "max": [
    0.9971073269844055,
    0.9989955425262451
   ],
   "min": [
    0.006384082138538361,
    0.00919500645250082
   ],
   "type": "VEC2"
  },
  {
   "bufferView": 0,
   "byteOffset": 477468,
   "componentType": 5125,
   "count": 1752,
   "type": "SCALAR"
  },
  {
   "bufferView": 2,
   "byteOffset": 998136,
   "componentType": 5126,
   "count": 590,
   "max": [
    178.29150390625,
    422.9712219238281,
    422.9712219238281
   ],
   "min": [
    -178.2914581298828,
    -422.9712219238281,
    -422.9712219238281
   ],
   "type": "VEC3"
  },
  {
   "bufferView": 2,
   "byteOffset": 1005216,
   "componentType": 5126,
   "count": 590,
   "max": [
    0.997200071811676,
    0.9921934008598328,
    0.9921932220458984
   ],
   "min": [
    -1.0,
    -0.9921931624412537,
    -0.9921932816505432
   ],
   "type": "VEC3"
  },
  {
   "bufferView": 1,
   "byteOffset": 332712,
   "componentType": 5126,
   "count": 590,
   "max": [
    0.9971073269844055,
    0.9989955425262451
   ],
   "min": [
    0.006384082138538361,
    0.00919500645250082
   ],
   "type": "VEC2"
  },
  {
   "bufferView": 0,
   "byteOffset": 484476,
   "componentType": 5125,
   "count": 1752,
   "type": "SCALAR"
  },
  {
   "bufferView": 2,
   "byteOffset": 1012296,
   "componentType": 5126,
   "count": 5202,
   "max": [
    1092.3685302734375,
    2441.7822265625,
    1513.224853515625
   ],
   "min": [
    -1092.3685302734375,
    -2463.352783203125,
    165.95535278320312
   ],
   "type": "VEC3"
  },
  {
   "bufferView": 2,
   "byteOffset": 1074720,
   "componentType": 5126,
   "count": 5202,
   "max": [
    1.0,
    1.0,
    1.0
   ],
   "min": [
    -1.0,
    -1.0,
    -1.0
   ],
   "type": "VEC3"
  },
  {
   "bufferView": 1,
   "byteOffset": 337432,
   "componentType": 5126,
   "count": 5202,
   "max": [
    1.0001115798950195,
    0.9942537546157837
   ],
   "min": [
    0.005512307398021221,
    0.12542635202407837
   ],
   "type": "VEC2"
  },
  {
   "bufferView": 0,
   "byteOffset": 491484,
   "componentType": 5125,
   "count": 12948,
   "type": "SCALAR"
  },
  {
   "bufferView": 2,
   "byteOffset": 1137144,
   "componentType": 5126,
   "count": 90,
   "max": [
    865.2921142578125,
    1594.96875,
    1455.3372802734375
   ],
   "min": [
    -865.2918701171875,
    -1143.144775390625,
    1014.224609375
   ],
   "type": "VEC3"
  },
  {
   "bufferView": 2,
   "byteOffset": 1138224,
   "componentType": 5126,
   "count": 90,
   "max": [
    0.9413394331932068,
    0.7378432154655457,
    0.9123977422714233
   ],
   "min": [
    -0.9413392543792725,
    -0.46266379952430725,
    0.3361092209815979
   ],
   "type": "VEC3"
  },
  {
   "bufferView": 1,
   "byteOffset": 379048,
   "componentType": 5126,
   "count": 90,
   "max": [
    0.7816208600997925,
    0.21508625149726868
   ],
   "min": [
    0.014121255837380886,
    0.00423827301710844
   ],
   "type": "VEC2"
  },
  {
   "bufferView": 0,
   "byteOffset": 543276,
   "componentType": 5125,
   "count": 252,
   "type": "SCALAR"
  },
  {
   "bufferView": 2,
   "byteOffset": 1139304,
   "componentType": 5126,
   "count": 460,
   "max": [
    825.053466796875,
    2374.5341796875,
    857.822021484375
   ],
   "min": [
    -825.052490234375,
    -2312.089111328125,
    435.1604919433594
   ],
   "type": "VEC3"
  },
  {
   "bufferView": 2,
   "byteOffset": 1144824,
   "componentType": 5126,
   "count": 460,
   "max": [
    0.9710732102394104,
    0.9780523777008057,
    0.908684492111206
   ],
   "min": [
    -0.9710721969604492,
    -0.9917917847633362,
    -0.7845759391784668
   ],
   "type": "VEC3"
  },
  {
   "bufferView": 1,
   "byteOffset": 379768,
   "componentType": 5126,
   "count": 460,
   "max": [
    0.9891086220741272,
    0.8441577553749084
   ],
   "min": [
    0.008782551623880863,
    0.247634619474411
   ],
   "type": "VEC2"
  },
  {
   "bufferView": 0,
   "byteOffset": 544284,
   "componentType": 5125,
   "count": 1062,
   "type": "SCALAR"
  },
  {
   "bufferView": 2,
   "byteOffset": 1150344,
   "componentType": 5126,
   "count": 561,
   "max": [
    127.91349792480469,
    342.5674743652344,
    342.5674743652344
   ],
   "min": [
    -127.91352081298828,
    -342.5674743652344,
    -342.5674743652344
   ],
   "type": "VEC3"
  },
  {
   "bufferView": 2,
   "byteOffset": 1157076,
   "componentType": 5126,
   "count": 561,
   "max": [
    1.0,
    0.9876608848571777,
    0.9988201856613159
   ],
   "min": [
    -0.9991899728775024,
    -1.0,
    -0.9988201856613159
   ],
   "type": "VEC3"
  },
  {
   "bufferView": 1,
   "byteOffset": 383448,
   "componentType": 5126,
   "count": 561,
   "max": [
    0.998483419418335,
    0.9991238713264465
   ],
   "min": [
    0.0025589042343199253,
    0.005230903625488281
   ],
   "type": "VEC2"
  },
  {
   "bufferView": 0,
   "byteOffset": 548532,
   "componentType": 5125,
   "count": 1776,
   "type": "SCALAR"
  },
  {
   "bufferView": 2,
   "byteOffset": 1163808,
   "componentType": 5126,
   "count": 561,
   "max": [
    127.91349792480469,
    342.5674743652344,
    342.5674743652344
   ],
   "min": [
    -127.91352081298828,
    -342.5674743652344,
    -342.5674743652344
   ],
   "type": "VEC3"
  },
  {
   "bufferView": 2,
   "byteOffset": 1170540,
   "componentType": 5126,
   "count": 561,
   "max": [
    1.0,
    0.9876608848571777,
    0.9988201856613159
   ],
   "min": [
    -0.9991899728775024,
    -1.0,
    -0.9988201856613159
   ],
   "type": "VEC3"
  },
  {
   "bufferView": 1,
   "byteOffset": 387936,
   "componentType": 5126,
   "count": 561,
   "max": [
    0.998483419418335,
    0.9991238713264465
   ],
   "min": [
    0.0025589042343199253,
    0.005230903625488281
   ],
   "type": "VEC2"
  },
  {
   "bufferView": 0,
   "byteOffset": 555636,
   "componentType": 5125,
   "count": 1776,
   "type": "SCALAR"
  },
  {
   "bufferView": 2,
   "byteOffset": 1177272,
   "componentType": 5126,
   "count": 561,
   "max": [
    127.91352081298828,
    342.5675048828125,
    342.5674743652344
   ],
   "min": [
    -127.91350555419922,
    -342.5675048828125,
    -342.5674743652344
   ],
   "type": "VEC3"
  },
  {
   "bufferView": 2,
   "byteOffset": 1184004,
   "componentType": 5126,
   "count": 561,
   "max": [
    0.9991899728775024,
    1.0,
    0.9988201856613159
   ],
   "min": [
    -1.0,
    -0.9876609444618225,
    -0.9988201856613159
   ],
   "type": "VEC3"
  },
  {
   "bufferView": 1,
   "byteOffset": 392424,
   "componentType": 5126,
   "count": 561,
   "max": [
    0.998483419418335,
    0.9991238713264465
   ],
   "min": [
    0.0025589042343199253,
    0.005230903625488281
   ],
   "type": "VEC2"
  },
  {
   "bufferView": 0,
   "byteOffset": 562740,
   "componentType": 5125,
   "count": 1776,
   "type": "SCALAR"
  },
  {
   "bufferView": 2,
   "byteOffset": 1190736,
   "componentType": 5126,
   "count": 561,
   "max": [
    127.91352081298828,
    342.5675048828125,
    342.5674743652344
   ],
   "min": [
    -127.91350555419922,
    -342.5675048828125,
    -342.5674743652344
   ],
   "type": "VEC3"
  },
  {
   "bufferView": 2,
   "byteOffset": 1197468,
   "componentType": 5126,
   "count": 561,
   "max": [
    0.9991899728775024,
    1.0,
    0.9988201856613159
   ],
   "min": [
    -1.0,
    -0.9876609444618225,
    -0.9988201856613159
   ],
   "type": "VEC3"
  },
  {
   "bufferView": 1,
   "byteOffset": 396912,
   "componentType": 5126,
   "count": 561,
   "max": [
    0.998483419418335,
    0.9991238713264465
   ],
   "min": [
    0.0025589042343199253,
    0.005230903625488281
   ],
   "type": "VEC2"
  },
  {
   "bufferView": 0,
   "byteOffset": 569844,
   "componentType": 5125,
   "count": 1776,
   "type": "SCALAR"
  },
  {
   "bufferView": 2,
   "byteOffset": 1204200,
   "componentType": 5126,
   "count": 647,
   "max": [
    153.01393127441406,
    337.1017150878906,
    337.1017150878906
   ],
   "min": [
    -153.01393127441406,
    -337.1017150878906,
    -337.1017150878906
   ],
   "type": "VEC3"
  },
  {
   "bufferView": 2,
   "byteOffset": 1211964,
   "componentType": 5126,
   "count": 647,
   "max": [
    1.0,
    0.9894488453865051,
    0.9894487857818604
   ],
   "min": [
    -0.9998453259468079,
    -0.9894486665725708,
    -0.9894488453865051
   ],
   "type": "VEC3"
  },
  {
   "bufferView": 1,
   "byteOffset": 401400,
   "componentType": 5126,
   "count": 647,
   "max": [
    0.9976451396942139,
    0.9974652528762817
   ],
   "min": [
    0.006586378440260887,
    0.012232266366481781
   ],
   "type": "VEC2"
  },
  {
   "bufferView": 0,
   "byteOffset": 576948,
   "componentType": 5125,
   "count": 1809,
   "type": "SCALAR"
  },
  {
   "bufferView": 2,
   "byteOffset": 1219728,
   "componentType": 5126,
   "count": 647,
   "max": [
    161.72775268554688,
    356.2989807128906,
    356.2989807128906
   ],
   "min": [
    -161.72779846191406,
    -356.2989807128906,
    -356.2989807128906
   ],
   "type": "VEC3"
  },
  {
   "bufferView": 2,
   "byteOffset": 1227492,
   "componentType": 5126,
   "count": 647,
   "max": [
    1.0,
    0.9894488453865051,
    0.9894487857818604
   ],
   "min": [
    -0.9998453259468079,
    -0.9894487261772156,
    -0.9894487857818604
   ],
   "type": "VEC3"
  },
  {
   "bufferView": 1,
   "byteOffset": 406576,
   "componentType": 5126,
   "count": 647,
   "max": [
    0.9976451396942139,
    0.9974652528762817
   ],
   "min": [
    0.006586378440260887,
    0.012232266366481781
   ],
   "type": "VEC2"
  },
  {
   "bufferView": 0,
   "byteOffset": 584184,
   "componentType": 5125,
   "count": 1809,
   "type": "SCALAR"
  },
  {
   "bufferView": 2,
   "byteOffset": 1235256,
   "componentType": 5126,
   "count": 647,
   "max": [
    153.01393127441406,
    337.1017150878906,
    337.1017150878906
   ],
   "min": [
    -153.01393127441406,
    -337.1017150878906,
    -337.1017150878906
   ],
   "type": "VEC3"
  },
  {
   "bufferView": 2,
   "byteOffset": 1243020,
   "componentType": 5126,
   "count": 647,
   "max": [
    0.9998453259468079,
    0.9894488453865051,
    0.9894487857818604
   ],
   "min": [
    -1.0,
    -0.9894486665725708,
    -0.9894488453865051
   ],
   "type": "VEC3"
  },
  {
   "bufferView": 1,
   "byteOffset": 411752,
   "componentType": 5126,
   "count": 647,
   "max": [
    0.9976451396942139,
    0.9974652528762817
   ],
   "min": [
    0.006586378440260887,
    0.012232266366481781
   ],
   "type": "VEC2"
  },
  {
   "bufferView": 0,
   "byteOffset": 591420,
   "componentType": 5125,
   "count": 1809,
   "type": "SCALAR"
  },
  {
   "bufferView": 2,
   "byteOffset": 1250784,
   "componentType": 5126,
   "count": 647,
   "max": [
    161.72779846191406,
    356.2989807128906,
    356.2989807128906
   ],
   "min": [
    -161.72775268554688,
    -356.2989807128906,
    -356.2989807128906
   ],
   "type": "VEC3"
  },
  {
   "bufferView": 2,
   "byteOffset": 1258548,
   "componentType": 5126,
   "count": 647,
   "max": [
    0.9998453259468079,
    0.9894488453865051,
    0.9894487857818604
   ],
   "min": [
    -1.0,
    -0.9894487261772156,
    -0.9894488453865051
   ],
   "type": "VEC3"
  },
  {
   "bufferView": 1,
   "byteOffset": 416928,
   "componentType": 5126,
   "count": 647,
   "max": [
    0.9976451396942139,
    0.9974652528762817
   ],
   "min": [
    0.006586378440260887,
    0.012232266366481781
   ],
   "type": "VEC2"
  },
  {
   "bufferView": 0,
   "byteOffset": 598656,
   "componentType": 5125,
   "count": 1809,
   "type": "SCALAR"
  },
  {
   "bufferView": 2,
   "byteOffset": 1266312,
   "componentType": 5126,
   "count": 3743,
   "max": [
    994.9465942382812,
    2129.82177734375,
    1168.0947265625
   ],
   "min": [
    -994.9464721679688,
    -2272.68994140625,
    83.011962890625
   ],
   "type": "VEC3"
  },
  {
   "bufferView": 2,
   "byteOffset": 1311228,
   "componentType": 5126,
   "count": 3743,
   "max": [
    1.0,
    1.0,
    1.0
   ],
   "min": [
    -1.0,
    -1.0,
    -1.0
   ],
   "type": "VEC3"
  },
  {
   "bufferView": 1,
   "byteOffset": 422104,
   "componentType": 5126,
   "count": 3743,
   "max": [
    0.9962437152862549,
    0.9993757605552673
   ],
   "min": [
    -0.00022192439064383507,
    0.0033646326046437025
   ],
   "type": "VEC2"
  },
  {
   "bufferView": 0,
   "byteOffset": 605892,
   "componentType": 5125,
   "count": 10584,
   "type": "SCALAR"
  },
  {
   "bufferView": 2,
   "byteOffset": 1356144,
   "componentType": 5126,
   "count": 97,
   "max": [
    737.6513061523438,
    457.6773681640625,
    1035.9925537109375
   ],
   "min": [
    -737.6511840820312,
    -2020.8597412109375,
    540.7850341796875
   ],
   "type": "VEC3"
  },
  {
   "bufferView": 2,
   "byteOffset": 1357308,
   "componentType": 5126,
   "count": 97,
   "max": [
    0.8443592190742493,
    0.060157500207424164,
    0.9861782193183899
   ],
   "min": [
    -0.8443592190742493,
    -0.6809940338134766,
    0.5324826836585999
   ],
   "type": "VEC3"
  },
  {
   "bufferView": 1,
   "byteOffset": 452048,
   "componentType": 5126,
   "count": 97,
   "max": [
    0.6310997009277344,
    0.2499828189611435
   ],
   "min": [
    0.3751298785209656,
    0.007843207567930222
   ],
   "type": "VEC2"
  },
  {
   "bufferView": 0,
   "byteOffset": 648228,
   "componentType": 5125,
   "count": 336,
   "type": "SCALAR"
  },
  {
   "bufferView": 2,
   "byteOffset": 1358472,
   "componentType": 5126,
   "count": 226,
   "max": [
    708.2960815429688,
    2022.2498779296875,
    657.5008544921875
   ],
   "min": [
    -708.2959594726562,
    -1901.45849609375,
    519.6610107421875
   ],
   "type": "VEC3"
  },
  {
   "bufferView": 2,
   "byteOffset": 1361184,
   "componentType": 5126,
   "count": 226,
   "max": [
    0.4530572295188904,
    0.9999650120735168,
    0.5344443917274475
   ],
   "min": [
    -0.45305725932121277,
    -1.0,
    -0.30751466751098633
   ],
   "type": "VEC3"
  },
  {
   "bufferView": 1,
   "byteOffset": 452824,
   "componentType": 5126,
   "count": 226,
   "max": [
    0.8800035715103149,
    0.8464143872261047
   ],
   "min": [
    0.3569091260433197,
    0.016686726361513138
   ],
   "type": "VEC2"
  },
  {
   "bufferView": 0,
   "byteOffset": 649572,
   "componentType": 5125,
   "count": 648,
   "type": "SCALAR"
  },
  {
   "bufferView": 2,
   "byteOffset": 1363896,
   "componentType": 5126,
   "count": 518,
   "max": [
    184.4376983642578,
    422.9712219238281,
    422.9712219238281
   ],
   "min": [
    -172.145263671875,
    -422.9712219238281,
    -422.9712219238281
   ],
   "type": "VEC3"
  },
  {
   "bufferView": 2,
   "byteOffset": 1370112,
   "componentType": 5126,
   "count": 518,
   "max": [
    1.0,
    0.9921934008598328,
    0.9921932220458984
   ],
   "min": [
    -0.9972001314163208,
    -0.9921931624412537,
    -0.9921932816505432
   ],
   "type": "VEC3"
  },
  {
   "bufferView": 1,
   "byteOffset": 454632,
   "componentType": 5126,
   "count": 518,
   "max": [
    0.9971073269844055,
    0.9989955425262451
   ],
   "min": [
    0.006384082138538361,
    0.00919500645250082
   ],
   "type": "VEC2"
  },
  {
   "bufferView": 0,
   "byteOffset": 652164,
   "componentType": 5125,
   "count": 1644,
   "type": "SCALAR"
  },
  {
   "bufferView": 2,
   "byteOffset": 1376328,
   "componentType": 5126,
   "count": 72,
   "max": [
    172.78318786621094,
    240.29393005371094,
    245.79541015625
   ],
   "min": [
    129.4013214111328,
    -240.29393005371094,
    -245.79547119140625
   ],
   "type": "VEC3"
  },
  {
   "bufferView": 2,
   "byteOffset": 1377192,
   "componentType": 5126,
   "count": 72,
   "max": [
    0.46728652715682983,
    0.9082018136978149,
    0.8207906484603882
   ],
   "min": [
    0.41287997364997864,
    -0.9082038402557373,
    -0.8207905888557434
   ],
   "type": "VEC3"
  },
  {
   "bufferView": 1,
   "byteOffset": 458776,
   "componentType": 5126,
   "count": 72,
   "max": [
    0.8101778030395508,
    0.8118117451667786
   ],
   "min": [
    0.39503178000450134,
    0.4093989431858063
   ],
   "type": "VEC2"
  },
  {
   "bufferView": 0,
   "byteOffset": 658740,
   "componentType": 5125,
   "count": 108,
   "type": "SCALAR"
  },
  {
   "bufferView": 2,
   "byteOffset": 1378056,
   "componentType": 5126,
   "count": 5584,
   "max": [
    1163.3094482421875,
    2561.17431640625,
    1947.6904296875
   ],
   "min": [
    -1163.3092041015625,
    -2627.7470703125,
    222.0419921875
   ],
   "type": "VEC3"
  },
  {
   "bufferView": 2,
   "byteOffset": 1445064,
   "componentType": 5126,
   "count": 5584,
   "max": [
    1.0,
    1.0,
    1.0
   ],
   "min": [
    -1.0,
    -1.0,
    -1.0
   ],
   "type": "VEC3"
  },
  {
   "bufferView": 1,
   "byteOffset": 459352,
   "componentType": 5126,
   "count": 5584,
   "max": [
    0.9956587553024292,
    0.9992677569389343
   ],
   "min": [
    0.0003453001845628023,
    0.0076978872530162334
   ],
   "type": "VEC2"
  },
  {
   "bufferView": 0,
   "byteOffset": 659172,
   "componentType": 5125,
   "count": 15363,
   "type": "SCALAR"
  },
  {
   "bufferView": 2,
   "byteOffset": 1512072,
   "componentType": 5126,
   "count": 228,
   "max": [
    891.6848754882812,
    2487.28125,
    1817.457763671875
   ],
   "min": [
    -891.6846313476562,
    -1245.4652099609375,
    1274.6455078125
   ],
   "type": "VEC3"
  },
  {
   "bufferView": 2,
   "byteOffset": 1514808,
   "componentType": 5126,
   "count": 228,
   "max": [
    0.9840220808982849,
    0.9447618126869202,
    0.9036628007888794
   ],
   "min": [
    -0.9840220212936401,
    -0.5626327991485596,
    0.1779603511095047
   ],
   "type": "VEC3"
  },
  {
   "bufferView": 1,
   "byteOffset": 504024,
   "componentType": 5126,
   "count": 228,
   "max": [
    0.8854396939277649,
    0.9464392066001892
   ],
   "min": [
    0.7378419041633606,
    0.8785857558250427
   ],
   "type": "VEC2"
  },
  {
   "bufferView": 0,
   "byteOffset": 720624,
   "componentType": 5125,
   "count": 864,
   "type": "SCALAR"
  },
  {
   "bufferView": 2,
   "byteOffset": 1517544,
   "componentType": 5126,
   "count": 272,
   "max": [
    874.5903930664062,
    2422.67529296875,
    1224.34814453125
   ],
   "min": [
    -874.5905151367188,
    -2477.423583984375,
    482.22088623046875
   ],
   "type": "VEC3"
  },
  {
   "bufferView": 2,
   "byteOffset": 1520808,
   "componentType": 5126,
   "count": 272,
   "max": [
    0.9995811581611633,
    0.9999212026596069,
    0.9986425042152405
   ],
   "min": [
    -0.9995810985565186,
    -0.9999997615814209,
    -0.9986985325813293
   ],
   "type": "VEC3"
  },
  {
   "bufferView": 1,
   "byteOffset": 505848,
   "componentType": 5126,
   "count": 272,
   "max": [
    0.9970071911811829,
    0.9910596609115601
   ],
   "min": [
    0.012797352857887745,
    0.2490207552909851
   ],
   "type": "VEC2"
  },
  {
   "bufferView": 0,
   "byteOffset": 724080,
   "componentType": 5125,
   "count": 618,
   "type": "SCALAR"
  },
  {
   "bufferView": 2,
   "byteOffset": 1524072,
   "componentType": 5126,
   "count": 518,
   "max": [
    184.4376983642578,
    422.9712219238281,
    422.9712219238281
   ],
   "min": [
    -172.145263671875,
    -422.9712219238281,
    -422.9712219238281
   ],
   "type": "VEC3"
  },
  {
   "bufferView": 2,
   "byteOffset": 1530288,
   "componentType": 5126,
   "count": 518,
   "max": [
    1.0,
    0.9921934008598328,
    0.9921932220458984
   ],
   "min": [
    -0.9972001314163208,
    -0.9921931624412537,
    -0.9921932816505432
   ],
   "type": "VEC3"
  },
  {
   "bufferView": 1,
   "byteOffset": 508024,
   "componentType": 5126,
   "count": 518,
   "max": [
    0.9971073269844055,
    0.9989955425262451
   ],
   "min": [
    0.006384082138538361,
    0.00919500645250082
   ],
   "type": "VEC2"
  },
  {
   "bufferView": 0,
   "byteOffset": 726552,
   "componentType": 5125,
   "count": 1644,
   "type": "SCALAR"
  },
  {
   "bufferView": 2,
   "byteOffset": 1536504,
   "componentType": 5126,
   "count": 72,
   "max": [
    172.78318786621094,
    240.29393005371094,
    245.79541015625
   ],
   "min": [
    129.4013214111328,
    -240.29393005371094,
    -245.79547119140625
   ],
   "type": "VEC3"
  },
  {
   "bufferView": 2,
   "byteOffset": 1537368,
   "componentType": 5126,
   "count": 72,
   "max": [
    0.46728652715682983,
    0.9082018136978149,
    0.8207906484603882
   ],
   "min": [
    0.41287997364997864,
    -0.9082038402557373,
    -0.8207905888557434
   ],
   "type": "VEC3"
  },
  {
   "bufferView": 1,
   "byteOffset": 512168,
   "componentType": 5126,
   "count": 72,
   "max": [
    0.8101778030395508,
    0.8118117451667786
   ],
   "min": [
    0.39503178000450134,
    0.4093989431858063
   ],
   "type": "VEC2"
  },
  {
   "bufferView": 0,
   "byteOffset": 733128,
   "componentType": 5125,
   "count": 108,
   "type": "SCALAR"
  },
  {
   "bufferView": 2,
   "byteOffset": 1538232,
   "componentType": 5126,
   "count": 518,
   "max": [
    172.145263671875,
    422.9712219238281,
    422.9712219238281
   ],
   "min": [
    -184.4376983642578,
    -422.9712219238281,
    -422.9712219238281
   ],
   "type": "VEC3"
  },
  {
   "bufferView": 2,
   "byteOffset": 1544448,
   "componentType": 5126,
   "count": 518,
   "max": [
    0.997200071811676,
    0.9921934008598328,
    0.9921932220458984
   ],
   "min": [
    -1.0,
    -0.9921931624412537,
    -0.9921932816505432
   ],
   "type": "VEC3"
  },
  {
   "bufferView": 1,
   "byteOffset": 512744,
   "componentType": 5126,
   "count": 518,
   "max": [
    0.9971073269844055,
    0.9989955425262451
   ],
   "min": [
    0.006384082138538361,
    0.00919500645250082
   ],
   "type": "VEC2"
  },
  {
   "bufferView": 0,
   "byteOffset": 733560,
   "componentType": 5125,
   "count": 1644,
   "type": "SCALAR"
  },
  {
   "bufferView": 2,
   "byteOffset": 1550664,
   "componentType": 5126,
   "count": 72,
   "max": [
    -129.4013214111328,
    240.29393005371094,
    245.79541015625
   ],
   "min": [
    -172.78318786621094,
    -240.29393005371094,
    -245.79547119140625
   ],
   "type": "VEC3"
  },
  {
   "bufferView": 2,
   "byteOffset": 1551528,
   "componentType": 5126,
   "count": 72,
   "max": [
    -0.4128800332546234,
    0.9082017540931702,
    0.8207906484603882
   ],
   "min": [
    -0.46728646755218506,
    -0.9082038402557373,
    -0.8207906484603882
   ],
   "type": "VEC3"
  },
  {
   "bufferView": 1,
   "byteOffset": 516888,
   "componentType": 5126,
   "count": 72,
   "max": [
    0.8101778030395508,
    0.8118117451667786
   ],
   "min": [
    0.39503178000450134,
    0.4093989431858063
   ],
   "type": "VEC2"
  },
  {
   "bufferView": 0,
   "byteOffset": 740136,
   "componentType": 5125,
   "count": 108,
   "type": "SCALAR"
  },
  {
   "bufferView": 2,
   "byteOffset": 1552392,
   "componentType": 5126,
   "count": 518,
   "max": [
    172.145263671875,
    422.9712219238281,
    422.9712219238281
   ],
   "min": [
    -184.4376983642578,
    -422.9712219238281,
    -422.9712219238281
   ],
   "type": "VEC3"
  },
  {
   "bufferView": 2,
   "byteOffset": 1558608,
   "componentType": 5126,
   "count": 518,
   "max": [
    0.997200071811676,
    0.9921934008598328,
    0.9921932220458984
   ],
   "min": [
    -1.0,
    -0.9921931624412537,
    -0.9921932816505432
   ],
   "type": "VEC3"
  },
  {
   "bufferView": 1,
   "byteOffset": 517464,
   "componentType": 5126,
   "count": 518,
   "max": [
    0.9971073269844055,
    0.9989955425262451
   ],
   "min": [
    0.006384082138538361,
    0.00919500645250082
   ],
   "type": "VEC2"
  },
  {
   "bufferView": 0,
   "byteOffset": 740568,
   "componentType": 5125,
   "count": 1644,
   "type": "SCALAR"
  },
  {
   "bufferView": 2,
   "byteOffset": 1564824,
   "componentType": 5126,
   "count": 72,
   "max": [
    -129.4013214111328,
    240.29393005371094,
    245.79541015625
   ],
   "min": [
    -172.78318786621094,
    -240.29393005371094,
    -245.79547119140625
   ],
   "type": "VEC3"
  },
  {
   "bufferView": 2,
   "byteOffset": 1565688,
   "componentType": 5126,
   "count": 72,
   "max": [
    -0.4128800332546234,
    0.9082017540931702,
    0.8207906484603882
   ],
   "min": [
    -0.46728646755218506,
    -0.9082038402557373,
    -0.8207906484603882
   ],
   "type": "VEC3"
  },
  {
   "bufferView": 1,
   "byteOffset": 521608,
   "componentType": 5126,
   "count": 72,
   "max": [
    0.8101778030395508,
    0.8118117451667786
   ],
   "min": [
    0.39503178000450134,
    0.4093989431858063
   ],
   "type": "VEC2"
  },
  {
   "bufferView": 0,
   "byteOffset": 747144,
   "componentType": 5125,
   "count": 108,
   "type": "SCALAR"
  },
  {
   "bufferView": 2,
   "byteOffset": 1566552,
   "componentType": 5126,
   "count": 4757,
   "max": [
    1097.115478515625,
    2505.890380859375,
    1557.3455810546875
   ],
   "min": [
    -1097.11572265625,
    -2425.763916015625,
    165.95535278320312
   ],
   "type": "VEC3"
  },
  {
   "bufferView": 2,
   "byteOffset": 1623636,
   "componentType": 5126,
   "count": 4757,
   "max": [
    1.0,
    1.0,
    1.0
   ],
   "min": [
    -1.0,
    -1.0,
    -1.0
   ],
   "type": "VEC3"
  },
  {
   "bufferView": 1,
   "byteOffset": 522184,
   "componentType": 5126,
   "count": 4757,
   "max": [
    1.0021946430206299,
    0.996799111366272
   ],
   "min": [
    0.003874219488352537,
    0.0014891775790601969
   ],
   "type": "VEC2"
  },
  {
   "bufferView": 0,
   "byteOffset": 747576,
   "componentType": 5125,
   "count": 12636,
   "type": "SCALAR"
  },
  {
   "bufferView": 2,
   "byteOffset": 1680720,
   "componentType": 5126,
   "count": 154,
   "max": [
    869.0523681640625,
    2420.6484375,
    1461.6617431640625
   ],
   "min": [
    -869.0523681640625,
    -1099.8184814453125,
    1018.632080078125
   ],
   "type": "VEC3"
  },
  {
   "bufferView": 2,
   "byteOffset": 1682568,
   "componentType": 5126,
   "count": 154,
   "max": [
    0.999610424041748,
    0.9575327634811401,
    0.9796079397201538
   ],
   "min": [
    -0.999610424041748,
    -0.46266379952430725,
    -0.2970243990421295
   ],
   "type": "VEC3"
  },
  {
   "bufferView": 1,
   "byteOffset": 560240,
   "componentType": 5126,
   "count": 154,
   "max": [
    0.6490374803543091,
    0.433784544467926
   ],
   "min": [
    0.0064302715472877026,
    0.005850240588188171
   ],
   "type": "VEC2"
  },
  {
   "bufferView": 0,
   "byteOffset": 798120,
   "componentType": 5125,
   "count": 408,
   "type": "SCALAR"
  },
  {
   "bufferView": 2,
   "byteOffset": 1684416,
   "componentType": 5126,
   "count": 326,
   "max": [
    828.638916015625,
    2418.6796875,
    885.02587890625
   ],
   "min": [
    -828.637939453125,
    -2273.8427734375,
    437.05157470703125
   ],
   "type": "VEC3"
  },
  {
   "bufferView": 2,
   "byteOffset": 1688328,
   "componentType": 5126,
   "count": 326,
   "max": [
    0.9805880188941956,
    0.8784754276275635,
    0.9086894989013672
   ],
   "min": [
    -0.9805880188941956,
    -0.9917919039726257,
    -0.7845752239227295
   ],
   "type": "VEC3"
  },
  {
   "bufferView": 1,
   "byteOffset": 561472,
   "componentType": 5126,
   "count": 326,
   "max": [
    0.9823421239852905,
    0.8302196860313416
   ],
   "min": [
    0.008782551623880863,
    0.2533104717731476
   ],
   "type": "VEC2"
  },
  {
   "bufferView": 0,
   "byteOffset": 799752,
   "componentType": 5125,
   "count": 798,
   "type": "SCALAR"
  },
  {
   "bufferView": 2,
   "byteOffset": 1692240,
   "componentType": 5126,
   "count": 561,
   "max": [
    132.1848602294922,
    342.5674743652344,
    342.5674743652344
   ],
   "min": [
    -132.18487548828125,
    -342.5674743652344,
    -342.5674743652344
   ],
   "type": "VEC3"
  },
  {
   "bufferView": 2,
   "byteOffset": 1698972,
   "componentType": 5126,
   "count": 561,
   "max": [
    1.0,
    0.9884318709373474,
    0.9988201856613159
   ],
   "min": [
    -0.9991376996040344,
    -1.0,
    -0.9988201856613159
   ],
   "type": "VEC3"
  },
  {
   "bufferView": 1,
   "byteOffset": 564080,
   "componentType": 5126,
   "count": 561,
   "max": [
    0.998483419418335,
    0.9991238713264465
   ],
   "min": [
    0.0025589042343199253,
    0.005230903625488281
   ],
   "type": "VEC2"
  },
  {
   "bufferView": 0,
   "byteOffset": 802944,
   "componentType": 5125,
   "count": 1776,
   "type": "SCALAR"
  },
  {
   "bufferView": 2,
   "byteOffset": 1705704,
   "componentType": 5126,
   "count": 561,
   "max": [
    132.1848602294922,
    342.5674743652344,
    342.5674743652344
   ],
   "min": [
    -132.18487548828125,
    -342.5674743652344,
    -342.5674743652344
   ],
   "type": "VEC3"
  },
  {
   "bufferView": 2,
   "byteOffset": 1712436,
   "componentType": 5126,
   "count": 561,
   "max": [
    1.0,
    0.9884318709373474,
    0.9988201856613159
   ],
   "min": [
    -0.9991376996040344,
    -1.0,
    -0.9988201856613159
   ],
   "type": "VEC3"
  },
  {
   "bufferView": 1,
   "byteOffset": 568568,
   "componentType": 5126,
   "count": 561,
   "max": [
    0.998483419418335,
    0.9991238713264465
   ],
   "min": [
    0.0025589042343199253,
    0.005230903625488281
   ],
   "type": "VEC2"
  },
  {
   "bufferView": 0,
   "byteOffset": 810048,
   "componentType": 5125,
   "count": 1776,
   "type": "SCALAR"
  },
  {
   "bufferView": 2,
   "byteOffset": 1719168,
   "componentType": 5126,
   "count": 561,
   "max": [
    132.18492126464844,
    342.5674743652344,
    342.5674743652344
   ],
   "min": [
    -132.18487548828125,
    -342.5674743652344,
    -342.5674743652344
   ],
   "type": "VEC3"
  },
  {
   "bufferView": 2,
   "byteOffset": 1725900,
   "componentType": 5126,
   "count": 561,
   "max": [
    0.9991376996040344,
    1.0,
    0.9988201856613159
   ],
   "min": [
    -1.0,
    -0.9884318709373474,
    -0.9988201856613159
   ],
   "type": "VEC3"
  },
  {
   "bufferView": 1,
   "byteOffset": 573056,
   "componentType": 5126,
   "count": 561,
   "max": [
    0.998483419418335,
    0.9991238713264465
   ],
   "min": [
    0.0025589042343199253,
    0.005230903625488281
   ],
   "type": "VEC2"
  },
  {
   "bufferView": 0,
   "byteOffset": 817152,
   "componentType": 5125,
   "count": 1776,
   "type": "SCALAR"
  },
  {
   "bufferView": 2,
   "byteOffset": 1732632,
   "componentType": 5126,
   "count": 561,
   "max": [
    132.18492126464844,
    342.5674743652344,
    342.5674743652344
   ],
   "min": [
    -132.18487548828125,
    -342.5674743652344,
    -342.5674743652344
   ],
   "type": "VEC3"
  },
  {
   "bufferView": 2,
   "byteOffset": 1739364,
   "componentType": 5126,
   "count": 561,
   "max": [
    0.9991376996040344,
    1.0,
    0.9988201856613159
   ],
   "min": [
    -1.0,
    -0.9884318709373474,
    -0.9988201856613159
   ],
   "type": "VEC3"
  },
  {
   "bufferView": 1,
   "byteOffset": 577544,
   "componentType": 5126,
   "count": 561,
   "max": [
    0.998483419418335,
    0.9991238713264465
   ],
   "min": [
    0.0025589042343199253,
    0.005230903625488281
   ],
   "type": "VEC2"
  },
  {
   "bufferView": 0,
   "byteOffset": 824256,
   "componentType": 5125,
   "count": 1776,
   "type": "SCALAR"
  },
  {
   "bufferView": 2,
   "byteOffset": 1746096,
   "componentType": 5126,
   "count": 33,
   "max": [
    10844.0849609375,
    10844.0849609375,
    0.0
   ],
   "min": [
    -10844.0849609375,
    -10844.0849609375,
    0.0
   ],
   "type": "VEC3"
  },
  {
   "bufferView": 2,
   "byteOffset": 1746492,
   "componentType": 5126,
   "count": 33,
   "max": [
    0.0,
    0.0,
    1.0
   ],
   "min": [
    0.0,
    0.0,
    1.0
   ],
   "type": "VEC3"
  },
  {
   "bufferView": 1,
   "byteOffset": 582032,
   "componentType": 5126,
   "count": 33,
   "max": [
    1.0,
    1.0
   ],
   "min": [
    0.0,
    0.0
   ],
   "type": "VEC2"
  },
  {
   "bufferView": 0,
   "byteOffset": 831360,
   "componentType": 5125,
   "count": 96,
   "type": "SCALAR"
  }
 ],
 "asset": {
  "extras": {
   "author": "Comrade1280 (https://sketchfab.com/comrade1280)",
   "license": "CC-BY-4.0 (http://creativecommons.org/licenses/by/4.0/)",
   "source": "https://sketchfab.com/3d-models/generic-passenger-car-pack-20f9af9b8a404d5cb022ac6fe87f21f5",
   "title": "Generic passenger car pack"
  },
  "generator": "Sketchfab-12.68.0",
  "version": "2.0"
 },
 "bufferViews": [
  {
   "buffer": 0,
   "byteLength": 831744,
   "name": "floatBufferViews",
   "target": 34963
  },
  {
   "buffer": 0,
   "byteLength": 582296,
   "byteOffset": 831744,
   "byteStride": 8,
   "name": "floatBufferViews",
   "target": 34962
  },
  {
   "buffer": 0,
   "byteLength": 1746888,
   "byteOffset": 1414040,
   "byteStride": 12,
   "name": "floatBufferViews",
   "target": 34962
  }
 ],
 "buffers": [
  {
   "uri": "Pack_SUV.bin",
   "byteLength": 3160928
  }
 ],
 "images": [
  {
   "uri": "textures/Body_7_baseColor.png"
  },
  {
   "uri": "textures/Body_7_metallicRoughness.png"
  },
  {
   "uri": "textures/Optics_baseColor.jpeg"
  },
  {
   "uri": "textures/Wheel_3_baseColor.png"
  },
  {
   "uri": "textures/Wheel_3_metallicRoughness.png"
  }
 ],
 "materials": [
  {
   "name": "Body_7",
   "pbrMetallicRoughness": {
    "baseColorTexture": {
     "index": 0
    },
    "metallicRoughnessTexture": {
     "index": 1
    }
   }
  },
  {
   "alphaMode": "BLEND",
   "doubleSided": true,
   "name": "Glass_7",
   "pbrMetallicRoughness": {
    "baseColorFactor": [
     0.0,
     0.0,
     0.0,
     0.7056021341
    ],
    "metallicFactor": 0.0,
    "roughnessFactor": 0.0
   }
  },
  {
   "name": "Optics_7",
   "pbrMetallicRoughness": {
    "baseColorTexture": {
     "index": 2
    },
    "metallicFactor": 0.0,
    "roughnessFactor": 0.0
   }
  },
  {
   "name": "Wheel_6",
   "pbrMetallicRoughness": {
    "baseColorTexture": {
     "index": 3
    },
    "metallicRoughnessTexture": {
     "index": 4
    }
   }
  }
 ],
 "meshes": [
  {
   "name": "SUV Body_Body_0",
   "primitives": [
    {
     "attributes": {
      "NORMAL": 233,
      "POSITION": 232,
      "TEXCOORD_0": 234
     },
     "indices": 235,
     "material": 0,
     "mode": 4
    }
   ]
  },
  {
   "name": "SUV Body_Glass_0",
   "primitives": [
    {
     "attributes": {
      "NORMAL": 237,
      "POSITION": 236,
      "TEXCOORD_0": 238
     },
     "indices": 239,
     "material": 1,
     "mode": 4
    }
   ]
  },
  {
   "name": "SUV Body_Optics_0",
   "primitives": [
    {
     "attributes": {
      "NORMAL": 241,
      "POSITION": 240,
      "TEXCOORD_0": 242
     },
     "indices": 243,
     "material": 2,
     "mode": 4
    }
   ]
  },
  {
   "name": "Wheel_E001_Wheel_0",
   "primitives": [
    {
     "attributes": {
      "NORMAL": 245,
      "POSITION": 244,
      "TEXCOORD_0": 246
     },
     "indices": 247,
     "material": 3,
     "mode": 4
    }
   ]
  },
  {
   "name": "Wheel_E001_Body_0",
   "primitives": [
    {
     "attributes": {
      "NORMAL": 249,
      "POSITION": 248,
      "TEXCOORD_0": 250
     },
     "indices": 251,
     "material": 0,
     "mode": 4
    }
   ]
  },
  {
   "name": "Wheel_E003_Wheel_0",
   "primitives": [
    {
     "attributes": {
      "NORMAL": 261,
      "POSITION": 260,
      "TEXCOORD_0": 262
     },
     "indices": 263,
     "material": 3,
     "mode": 4
    }
   ]
  },
  {
   "name": "Wheel_E003_Body_0",
   "primitives": [
    {
     "attributes": {
      "NORMAL": 265,
      "POSITION": 264,
      "TEXCOORD_0": 266
     },
     "indices": 267,
     "material": 0,
     "mode": 4
    }
   ]
  },
  {
   "name": "Wheel_E_Wheel_0",
   "primitives": [
    {
     "attributes": {
      "NORMAL": 225,
      "POSITION": 224,
      "TEXCOORD_0": 226
     },
     "indices": 227,
     "material": 3,
     "mode": 4
    }
   ]
  },
  {
   "name": "Wheel_E_Body_0",
   "primitives": [
    {
     "attributes": {
      "NORMAL": 229,
      "POSITION": 228,
      "TEXCOORD_0": 230
     },
     "indices": 231,
     "material": 0,
     "mode": 4
    }
   ]
  },
  {
   "name": "Wheel_E002_Wheel_0",
   "primitives": [
    {
     "attributes": {
      "NORMAL": 253,
      "POSITION": 252,
      "TEXCOORD_0": 254
     },
     "indices": 255,
     "material": 3,
     "mode": 4
    }
   ]
  },
  {
   "name": "Wheel_E002_Body_0",
   "primitives": [
    {
     "attributes": {
      "NORMAL": 257,
      "POSITION": 256,
      "TEXCOORD_0": 258
     },
     "indices": 259,
     "material": 0,
     "mode": 4
    }
   ]
  }
 ],
 "nodes": [
  {
   "name": "Pack_SUV",
   "children": [
    1,
    5,
    8,
    11,
    14
   ]
  },
  {
   "name": "SUV Body",
   "matrix": [
    0.0008886755064460273,
    -2.8632547722993913e-19,
    -7.35099705731252e-08,
    0.0,
    -7.3509970572982e-08,
    3.5698113591951436e-19,
    -0.0008886755064460272,
    0.0,
    4.386806970831202e-19,
    0.0008886755094863473,
    2.4627688257297977e-19,
    0.0,
    -8.33949685427604e-06,
    0.0023684363073410604,
    -0.09641201237066888,
    1.0
   ],
   "children": [
    2,
    3,
    4
   ]
  },
  {
   "mesh": 0,
   "name": "SUV Body_Body_0"
  },
  {
   "mesh": 1,
   "name": "SUV Body_Glass_0"
  },
  {
   "mesh": 2,
   "name": "SUV Body_Optics_0"
  },
  {
   "name": "Wheel_E001",
   "matrix": [
    0.0008886755064460273,
    -2.8632547722993913e-19,
    -7.35099705731252e-08,
    0.0,
    -7.3509970572982e-08,
    3.5698113591951436e-19,
    -0.0008886755064460272,
    0.0,
    4.386806970831202e-19,
    0.0008886755094863473,
    2.4627688257297977e-19,
    0.0,
    0.7237841019788718,
    0.3758842203816694,
    -1.3653331980836025,
    1.0
   ],
   "children": [
    6,
    7
   ]
  },
  {
   "mesh": 3,
   "name": "Wheel_E001_Wheel_0"
  },
  {
   "mesh": 4,
   "name": "Wheel_E001_Body_0"
  },
  {
   "name": "Wheel_E003",
   "matrix": [
    0.0008886755064460273,
    -2.8632547722993913e-19,
    -7.35099705731252e-08,
    0.0,
    -7.3509970572982e-08,
    3.5698113591951436e-19,
    -0.0008886755064460272,
    0.0,
    4.386806970831202e-19,
    0.0008886755094863473,
    2.4627688257297977e-19,
    0.0,
    -0.724009553712057,
    0.3758842203816697,
    -1.3652140002685167,
    1.0
   ],
   "children": [
    9,
    10
   ]
  },
  {
   "mesh": 5,
   "name": "Wheel_E003_Wheel_0"
  },
  {
   "mesh": 6,
   "name": "Wheel_E003_Body_0"
  },
  {
   "name": "Wheel_E",
   "matrix": [
    0.0008886755064460273,
    -2.8632547722993913e-19,
    -7.35099705731252e-08,
    0.0,
    -7.3509970572982e-08,
    3.5698113591951436e-19,
    -0.0008886755064460272,
    0.0,
    4.386806970831202e-19,
    0.0008886755094863473,
    2.4627688257297977e-19,
    0.0,
    0.7240095591968969,
    0.37588411190077203,
    1.365214004254205,
    1.0
   ],
   "children": [
    12,
    13
   ]
  },
  {
   "mesh": 7,
   "name": "Wheel_E_Wheel_0"
  },
  {
   "mesh": 8,
   "name": "Wheel_E_Body_0"
  },
  {
   "name": "Wheel_E002",
   "matrix": [
    0.0008886755064460273,
    -2.8632547722993913e-19,
    -7.35099705731252e-08,
    0.0,
    -7.3509970572982e-08,
    3.5698113591951436e-19,
    -0.0008886755064460272,
    0.0,
    4.386806970831202e-19,
    0.0008886755094863473,
    2.4627688257297977e-19,
    0.0,
    -0.7237840964940319,
    0.37588411190077237,
    1.3653332020692899,
    1.0
   ],
   "children": [
    15,
    16
   ]
  },
  {
   "mesh": 9,
   "name": "Wheel_E002_Wheel_0"
  },
  {
   "mesh": 10,
   "name": "Wheel_E002_Body_0"
  }
 ],
 "samplers": [
  {
   "magFilter": 9729,
   "minFilter": 9987,
   "wrapS": 10497,
   "wrapT": 10497
  }
 ],
 "scene": 0,
 "scenes": [
  {
   "name": "Pack_SUV",
   "nodes": [
    0
   ]
  }
 ],
 "textures": [
  {
   "sampler": 0,
   "source": 0
  },
  {
   "sampler": 0,
   "source": 1
  },
  {
   "sampler": 0,
   "source": 2
  },
  {
   "sampler": 0,
   "source": 3
  },
  {
   "sampler": 0,
   "source": 4
  }
 ]
}